<?xml version="1.0" encoding="utf-8"?>
<!-- Generator: Adobe Illustrator 18.1.1, SVG Export Plug-In . SVG Version: 6.00 Build 0)  -->
<svg version="1.1" id="Calque_1" xmlns="http://www.w3.org/2000/svg" xmlns:xlink="http://www.w3.org/1999/xlink" x="0px" y="0px"
	 viewBox="0 83.9 595.3 670" enable-background="new 0 83.9 595.3 670" xml:space="preserve">
<g>
	<polygon fill="#F7C677" points="573.9,581.6 297.6,739.5 21.4,581.6 21.4,262.1 297.6,102.4 573.9,262.1 	"/>
	<polygon fill="#FBBC42" points="297.6,102.4 297.6,102.4 21.4,262.1 21.4,581.6 297.6,739.5 297.6,739.5 	"/>
</g>
<g>
	<g>
		<path fill="#FBFCF4" d="M297.6,644.2C174.5,644.2,74.3,544,74.3,420.9s100.2-223.3,223.3-223.3c123.2,0,223.4,100.2,223.4,223.3
			C521,544.1,420.8,644.2,297.6,644.2z M297.6,203.9c-119.6,0-217,97.3-217,217c0,119.6,97.3,217,217,217c119.6,0,217-97.3,217-217
			C514.6,301.3,417.3,203.9,297.6,203.9z"/>
		<path fill="#FBFCF4" d="M464.5,274h-7.3l-36.6,96.8H298.2L261.6,274h-19.7v-0.1h-6l-82.5,217.6c-7.2,19.1-13.7,31.8-19.5,38
			c-2.9,3.1-9.2,5.7-19,7.6v7.2h73.8v-7.2c-11.3-0.9-18.6-2.9-22.1-6c-3.4-3.1-5.1-6.6-5.1-10.6c0-5.1,2-12.7,5.9-23l15.9-41.7H274
			l14.2,38c4.6,12.4,6.9,21.4,6.9,27.1c0,4.3-1.6,7.9-4.9,10.9c-3.3,3-9.6,4.8-18.9,5.3v7.2h91.2l2.5-7l0,0L464.5,274z M418,378.4
			l-58.7,155.1l-58.1-155.1H418z M188.6,441.4l40.8-106.9l39.7,106.9H188.6z"/>
	</g>
</g>
</svg>
