<?xml version="1.0" encoding="utf-8"?>
<!-- Generator: Adobe Illustrator 16.0.0, SVG Export Plug-In . SVG Version: 6.00 Build 0)  -->
<!DOCTYPE svg PUBLIC "-//W3C//DTD SVG 1.1//EN" "http://www.w3.org/Graphics/SVG/1.1/DTD/svg11.dtd">
<svg version="1.1" id="Calque_1" xmlns="http://www.w3.org/2000/svg" xmlns:xlink="http://www.w3.org/1999/xlink" x="0px" y="0px"
	 width="87.736px" height="87.732px" viewBox="0 0 87.736 87.732" enable-background="new 0 0 87.736 87.732" xml:space="preserve">
<g>
	<path fill="#303030" d="M87.736,37.642v12.682c0,0.449-0.158,0.899-0.458,1.316c-0.309,0.416-0.69,0.666-1.142,0.732l-10.57,1.6
		c-0.725,2.066-1.466,3.799-2.224,5.197c1.333,1.916,3.364,4.531,6.105,7.889c0.383,0.458,0.575,0.933,0.575,1.424
		c0,0.5-0.176,0.933-0.518,1.316c-1.023,1.417-2.914,3.465-5.655,6.164c-2.74,2.716-4.531,4.065-5.364,4.065
		c-0.458,0-0.957-0.176-1.491-0.517l-7.88-6.173c-1.674,0.875-3.406,1.6-5.197,2.174c-0.608,5.182-1.158,8.713-1.658,10.62
		c-0.267,1.066-0.949,1.6-2.058,1.6H37.525c-0.533,0-1-0.158-1.399-0.483c-0.4-0.324-0.616-0.732-0.658-1.224l-1.599-10.513
		c-1.866-0.616-3.573-1.315-5.139-2.115l-8.055,6.114c-0.375,0.341-0.858,0.517-1.424,0.517c-0.533,0-1.008-0.218-1.433-0.634
		c-4.798-4.34-7.938-7.538-9.42-9.596c-0.267-0.384-0.4-0.816-0.4-1.316c0-0.449,0.149-0.891,0.458-1.316
		c0.566-0.799,1.541-2.064,2.915-3.797c1.366-1.733,2.399-3.065,3.083-4.024c-1.033-1.907-1.808-3.79-2.341-5.655L1.658,52.148
		c-0.5-0.075-0.9-0.309-1.199-0.708C0.15,51.04,0,50.59,0,50.09V37.413c0-0.458,0.15-0.896,0.458-1.312
		c0.299-0.42,0.666-0.667,1.083-0.745l10.628-1.6c0.533-1.749,1.275-3.502,2.224-5.252c-1.524-2.169-3.565-4.798-6.114-7.884
		c-0.375-0.458-0.566-0.912-0.566-1.37c0-0.379,0.167-0.816,0.508-1.312c0.991-1.374,2.865-3.419,5.631-6.143
		c2.757-2.72,4.556-4.082,5.398-4.082c0.491,0,0.991,0.191,1.482,0.57l7.879,6.11c1.683-0.875,3.407-1.6,5.198-2.17
		c0.608-5.177,1.167-8.717,1.658-10.625C35.734,0.533,36.417,0,37.525,0h12.677c0.533,0,1.001,0.163,1.4,0.487
		c0.399,0.325,0.624,0.733,0.657,1.229l1.6,10.507c1.866,0.613,3.582,1.316,5.14,2.116l8.112-6.114
		c0.342-0.341,0.8-0.512,1.375-0.512c0.491,0,0.966,0.191,1.424,0.57c4.915,4.532,8.056,7.768,9.43,9.708
		c0.259,0.308,0.4,0.725,0.4,1.258c0,0.458-0.159,0.895-0.459,1.312c-0.574,0.8-1.541,2.07-2.915,3.798
		c-1.373,1.737-2.399,3.078-3.082,4.027c0.991,1.907,1.766,3.769,2.341,5.598l10.453,1.599c0.492,0.079,0.892,0.316,1.2,0.716
		C87.578,36.701,87.736,37.146,87.736,37.642z M54.201,54.206c2.856-2.857,4.29-6.302,4.29-10.337s-1.434-7.484-4.29-10.337
		c-2.849-2.857-6.297-4.286-10.337-4.286c-4.031,0-7.48,1.428-10.337,4.286c-2.857,2.853-4.281,6.301-4.281,10.337
		s1.424,7.48,4.281,10.337c2.857,2.856,6.306,4.281,10.337,4.281C47.904,58.487,51.352,57.062,54.201,54.206z"/>
</g>
</svg>
