<?xml version="1.0" encoding="utf-8"?>
<!-- Generator: Adobe Illustrator 18.1.1, SVG Export Plug-In . SVG Version: 6.00 Build 0)  -->
<svg version="1.1" id="Calque_1" xmlns="http://www.w3.org/2000/svg" xmlns:xlink="http://www.w3.org/1999/xlink" x="0px" y="0px"
	 viewBox="0 0 29.4 44.8" enable-background="new 0 0 29.4 44.8" xml:space="preserve">
<g>
	<polygon fill="#F59D00" points="29.4,25.5 14.7,33.9 0,25.5 0,8.5 14.7,0 29.4,8.5 	"/>
	<polygon fill="#FDC400" points="14.7,0 14.7,0 0,8.5 0,25.5 14.7,33.9 14.7,33.9 	"/>
	<g>
		<defs>
			<polygon id="SVGID_1_" points="29.4,25.5 14.7,33.9 0,25.5 0,8.5 14.7,0 29.4,8.5 			"/>
		</defs>
		<clipPath id="SVGID_2_">
			<use xlink:href="#SVGID_1_"  overflow="visible"/>
		</clipPath>
		<g clip-path="url(#SVGID_2_)">
			<polygon fill="#666666" points="21.7,13.8 21.1,6.7 14.6,3.5 8.1,6.8 7.6,13.8 			"/>
			<polygon fill="#808080" points="7.6,13.6 14.6,13.6 14.6,3.5 8.1,6.8 			"/>
			<polygon fill="#F9D5C0" points="12.2,21.8 12.4,24.8 14.6,26 14.6,23.8 			"/>
			<polygon fill="#FAE6DE" points="17,21.8 16.9,24.8 14.6,26 14.6,23.8 			"/>
			<polygon fill="#F9D5C0" points="8.4,13.4 7.4,13.3 6.8,14.4 7.2,16.4 8.6,17.5 			"/>
			<polygon fill="#FAE6DE" points="8.4,13.4 8.1,19.5 14.6,23.8 14.6,7.8 9.1,9 			"/>
			<polygon fill="#FAE6DE" points="20.8,13.4 21.8,13.3 22.5,14.4 22,16.4 20.6,17.5 			"/>
			<polygon fill="#F9D5C0" points="20.8,13.4 21.1,19.5 14.6,23.8 14.6,7.8 20.1,9 			"/>
			<polygon fill="#F9D5C0" points="14.6,13.1 13.3,17.2 14.7,18.7 			"/>
			<polygon fill="#F9D5C0" points="12.7,19.7 14.6,19.8 14.6,20.9 			"/>
			<polygon fill="#666666" points="13.6,13.4 10.2,12.9 9.7,13.7 			"/>
			<polygon fill="#666666" points="15.7,13.4 19,12.9 19.6,13.7 			"/>
			<polygon fill="#F9AF00" points="14.8,26.2 12.2,22.4 6.9,24.1 8.3,43.3 14.7,45.9 			"/>
			<polygon fill="#EE7402" points="12.2,22.4 10.8,22.8 13.5,26.6 13.8,26.2 14.7,28.2 14.7,24.9 			"/>
			<polygon fill="#EE7402" points="6.9,24.1 3.8,27.7 2.9,33.8 7.7,35.1 			"/>
			<polygon fill="#F59D00" points="14.7,26.1 17.2,22.4 22.5,24.1 21.1,43.3 14.7,45.9 			"/>
			<polygon fill="#EE7402" points="17.2,22.4 18.6,22.8 15.9,26.5 15.6,26.1 14.7,28.2 14.7,24.9 			"/>
			<polygon fill="#EE7402" points="22.5,24.1 25.6,27.7 26.5,33.7 21.7,35 			"/>
			<polygon fill="#C4894D" points="11.3,15.5 11.1,14.8 11.7,14.3 12.4,14.8 12.1,15.5 			"/>
			<polygon fill="#A66931" points="17.1,15.5 16.9,14.8 17.5,14.3 18.1,14.8 17.9,15.5 			"/>
			<polygon fill="#666666" points="8.4,13.4 9.5,9.4 12.4,8.9 14.6,10.6 14.6,5.4 8.9,8.6 			"/>
			<polygon fill="#808080" points="20.8,13.4 19.8,9.3 16.6,8.9 14.6,10.6 14.6,5.4 20.4,8.6 			"/>
			<polygon fill="#B3B3B3" points="14.6,18.6 12.5,18.5 11.1,19.3 14.6,19.4 			"/>
			<polygon fill="#999999" points="14.6,18.6 16.6,18.5 18,19.3 14.6,19.4 			"/>
			<polygon fill="#808080" points="14.6,21.6 9.2,18.8 8.3,15.9 8.1,19.5 14.6,23.8 			"/>
			<polygon fill="#666666" points="14.6,21.6 20,18.8 20.9,15.9 21.1,19.5 14.6,23.8 			"/>
			<g>
				<path fill="#1A1A1A" d="M20.4,14L20,13.9c-2.4-0.4-3.5,0-4.4,0.2c-0.6,0.1-0.9,0.1-1,0.1v0c0,0,0,0,0,0c0,0,0,0,0,0v0
					c-0.1,0-0.3,0-1-0.1c-1-0.2-2-0.6-4.4-0.2L8.8,14l0,0.7c0,0,0.2,0,0.3,0.5l0.3,1.5c0,0,0.2,1.2,1.9,1.2c0,0,1.7,0.2,2.2-0.6
					c0,0,0.5-0.4,0.7-1.6c0,0,0.1-0.4,0.4-0.5c0.4,0,0.4,0.5,0.4,0.5c0.2,1.2,0.7,1.6,0.7,1.6c0.6,0.8,2.2,0.6,2.2,0.6
					c1.6,0,1.9-1.2,1.9-1.2l0.3-1.5c0.1-0.5,0.3-0.5,0.3-0.5L20.4,14z M13.9,15.8c-0.1,0.9-1.2,1.8-2.3,1.7
					c-1.2-0.1-1.9-0.8-1.9-1.7c0-0.5-0.1-1.1,0.3-1.4c0.4-0.3,1.2-0.3,1.8-0.3c0.6,0,1.5,0.1,1.9,0.5C14,14.9,13.9,15.4,13.9,15.8z
					 M19.6,15.8c0,0.9-0.7,1.6-1.9,1.7c-1.2,0.1-2.2-0.7-2.3-1.7c0-0.4-0.1-1,0.3-1.2c0.5-0.3,1.3-0.5,1.9-0.5c0.6,0,1.4,0,1.8,0.3
					C19.7,14.7,19.6,15.3,19.6,15.8z"/>
			</g>
		</g>
	</g>
</g>
<g>
	<path fill="#FFFFFF" d="M3.7,36.7c0.1,0,0.1,0.1,0.1,0.1l1.5,7.7c0,0.1,0,0.2-0.2,0.2H3.4c-0.1,0-0.1,0-0.1-0.1L3,43.1
		C3,43,3,43,2.9,43H2.3c0,0-0.1,0-0.1,0.1L2,44.7c0,0.1-0.1,0.1-0.1,0.1H0.1C0,44.8,0,44.7,0,44.6l1.4-7.7c0-0.1,0.1-0.1,0.1-0.1
		H3.7z M2.7,40.8c0-0.2,0-0.2-0.1-0.2s-0.1,0.1-0.1,0.2l-0.1,1c0,0.1,0,0.1,0.1,0.1c0.3,0,0.4,0,0.4-0.1L2.7,40.8z"/>
	<path fill="#FFFFFF" d="M9.4,42.6c0.1,0,0.1,0.1,0.1,0.1v2c0,0.1-0.1,0.1-0.1,0.1H5.6c-0.1,0-0.1-0.1-0.1-0.1v-7.8
		c0-0.1,0.1-0.2,0.1-0.2h1.8c0.1,0,0.1,0.1,0.1,0.1v5.6c0,0,0,0.1,0.1,0.1H9.4z"/>
	<path fill="#FFFFFF" d="M9.9,36.9c0-0.1,0.1-0.2,0.1-0.2h3.9c0.1,0,0.1,0.1,0.1,0.1v1.9c0,0.1-0.1,0.1-0.1,0.1h-1.7
		c-0.1,0-0.1,0-0.1,0.1v0.6c0,0.1,0,0.1,0.1,0.1H13c0.1,0,0.1,0.1,0.1,0.1v1.9c0,0.1-0.1,0.1-0.1,0.1h-0.8c-0.1,0-0.1,0.1-0.1,0.1
		v2.6c0,0.1-0.1,0.2-0.1,0.2h-1.9c-0.1,0-0.1-0.1-0.1-0.1V36.9z"/>
	<path fill="#FFFFFF" d="M17,36.7c0.9,0,2.1,0.7,2.1,2c0,0.6-0.1,1.6-1.1,1.8v0c1.3,0.4,1.3,1.1,1.3,2.2c0,0.1,0.1,0.3,0.3,0.4
		c0.1,0,0.1,0.1,0.1,0.2c0,1.5-1.1,1.5-1.4,1.5c-0.8,0-1.3-0.5-1.3-1.5v-1.7c0-0.3-0.2-0.5-0.3-0.5c-0.1,0-0.1,0.1-0.1,0.1v3.4
		c0,0.1-0.1,0.1-0.1,0.1h-1.8c-0.1,0-0.1-0.1-0.1-0.1v-7.8c0-0.1,0.1-0.1,0.1-0.1H17z M16.5,40.1C16.5,40.2,16.6,40.2,16.5,40.1
		c0.3,0.1,0.3-0.2,0.3-0.7c0-0.2-0.2-0.4-0.2-0.4c-0.1,0-0.1,0-0.1,0.1V40.1z"/>
	<path fill="#FFFFFF" d="M19.9,36.9c0-0.1,0.1-0.1,0.1-0.1h3.8c0.1,0,0.1,0.1,0.1,0.1v1.9c0,0.1-0.1,0.1-0.1,0.1H22
		c0,0-0.1,0-0.1,0.1v0.6c0,0,0,0.1,0.1,0.1h0.8c0,0,0.1,0,0.1,0.1v2c0,0.1,0,0.1-0.1,0.1H22c0,0-0.1,0-0.1,0.1v0.6
		c0,0,0,0.1,0.1,0.1h1.9c0.1,0,0.1,0.1,0.1,0.1v2c0,0.1-0.1,0.1-0.1,0.1H20c-0.1,0-0.1-0.1-0.1-0.1V36.9z"/>
	<path fill="#FFFFFF" d="M24.5,44.8c-0.1,0-0.1-0.1-0.1-0.1v-7.8c0-0.1,0.1-0.2,0.1-0.2h1.9c1.7,0,2.7,1.1,2.7,3v2c0,1.7-1,3-2.6,3
		H24.5z M27,39.2c0-0.1,0-0.2-0.1-0.2c0,0-0.1-0.1-0.2-0.1c0,0-0.1,0-0.1,0.1v3.6c0,0.1,0,0.1,0.1,0.1c0.1,0,0.3,0,0.3-0.3V39.2z"/>
</g>
</svg>
